<mxfile host="app.diagrams.net" modified="2024-05-10T12:01:23.984Z" agent="Mozilla/5.0 (Windows NT 10.0; Win64; x64) AppleWebKit/537.36 (KHTML, like Gecko) Chrome/124.0.0.0 Safari/537.36" etag="oySJ9pBgn-CVA87MO8Qr" version="24.3.1" type="github">
  <diagram name="第 1 页" id="XPfG3ImSLs2NGyLwPtg8">
    <mxGraphModel dx="1114" dy="592" grid="1" gridSize="10" guides="1" tooltips="1" connect="1" arrows="1" fold="1" page="1" pageScale="1" pageWidth="827" pageHeight="1169" math="0" shadow="0">
      <root>
        <mxCell id="0" />
        <mxCell id="1" parent="0" />
        <mxCell id="sqsLwtyC1Nj7BQoVnkVW-17" value="" style="ellipse;whiteSpace=wrap;html=1;aspect=fixed;" vertex="1" parent="1">
          <mxGeometry x="280" y="160" width="180" height="180" as="geometry" />
        </mxCell>
        <mxCell id="sqsLwtyC1Nj7BQoVnkVW-3" value="火" style="ellipse;whiteSpace=wrap;html=1;aspect=fixed;fontSize=15;fillColor=#dae8fc;strokeColor=#6c8ebf;fontStyle=1" vertex="1" parent="1">
          <mxGeometry x="430" y="190" width="40" height="40" as="geometry" />
        </mxCell>
        <mxCell id="sqsLwtyC1Nj7BQoVnkVW-4" value="木" style="ellipse;whiteSpace=wrap;html=1;aspect=fixed;fontSize=15;fillColor=#dae8fc;strokeColor=#6c8ebf;fontStyle=1" vertex="1" parent="1">
          <mxGeometry x="270" y="190" width="40" height="40" as="geometry" />
        </mxCell>
        <mxCell id="sqsLwtyC1Nj7BQoVnkVW-5" value="水" style="ellipse;whiteSpace=wrap;html=1;aspect=fixed;fontSize=15;fillColor=#dae8fc;strokeColor=#6c8ebf;fontStyle=1" vertex="1" parent="1">
          <mxGeometry x="350" y="140" width="40" height="40" as="geometry" />
        </mxCell>
        <mxCell id="sqsLwtyC1Nj7BQoVnkVW-6" value="金" style="ellipse;whiteSpace=wrap;html=1;aspect=fixed;fontSize=15;fillColor=#dae8fc;strokeColor=#6c8ebf;fontStyle=1" vertex="1" parent="1">
          <mxGeometry x="290" y="290" width="40" height="40" as="geometry" />
        </mxCell>
        <mxCell id="sqsLwtyC1Nj7BQoVnkVW-12" value="土" style="ellipse;whiteSpace=wrap;html=1;aspect=fixed;fontSize=15;fillColor=#dae8fc;strokeColor=#6c8ebf;fontStyle=1" vertex="1" parent="1">
          <mxGeometry x="420" y="290" width="40" height="40" as="geometry" />
        </mxCell>
        <mxCell id="sqsLwtyC1Nj7BQoVnkVW-18" value="" style="endArrow=classic;html=1;rounded=0;entryX=0.5;entryY=1;entryDx=0;entryDy=0;exitX=1;exitY=0;exitDx=0;exitDy=0;" edge="1" parent="1" source="sqsLwtyC1Nj7BQoVnkVW-6" target="sqsLwtyC1Nj7BQoVnkVW-5">
          <mxGeometry width="50" height="50" relative="1" as="geometry">
            <mxPoint x="150" y="450" as="sourcePoint" />
            <mxPoint x="200" y="400" as="targetPoint" />
          </mxGeometry>
        </mxCell>
        <mxCell id="sqsLwtyC1Nj7BQoVnkVW-20" value="" style="endArrow=classic;html=1;rounded=0;entryX=0;entryY=0;entryDx=0;entryDy=0;exitX=0.5;exitY=1;exitDx=0;exitDy=0;" edge="1" parent="1" source="sqsLwtyC1Nj7BQoVnkVW-5" target="sqsLwtyC1Nj7BQoVnkVW-12">
          <mxGeometry width="50" height="50" relative="1" as="geometry">
            <mxPoint x="370" y="180" as="sourcePoint" />
            <mxPoint x="440" y="280" as="targetPoint" />
          </mxGeometry>
        </mxCell>
        <mxCell id="sqsLwtyC1Nj7BQoVnkVW-21" value="" style="endArrow=classic;html=1;rounded=0;exitX=1;exitY=0.5;exitDx=0;exitDy=0;entryX=0;entryY=0.5;entryDx=0;entryDy=0;" edge="1" parent="1" source="sqsLwtyC1Nj7BQoVnkVW-4" target="sqsLwtyC1Nj7BQoVnkVW-3">
          <mxGeometry width="50" height="50" relative="1" as="geometry">
            <mxPoint x="390" y="330" as="sourcePoint" />
            <mxPoint x="440" y="280" as="targetPoint" />
          </mxGeometry>
        </mxCell>
        <mxCell id="sqsLwtyC1Nj7BQoVnkVW-22" value="" style="endArrow=classic;html=1;rounded=0;exitX=0;exitY=0.5;exitDx=0;exitDy=0;entryX=1;entryY=0;entryDx=0;entryDy=0;" edge="1" parent="1" source="sqsLwtyC1Nj7BQoVnkVW-3" target="sqsLwtyC1Nj7BQoVnkVW-6">
          <mxGeometry width="50" height="50" relative="1" as="geometry">
            <mxPoint x="390" y="330" as="sourcePoint" />
            <mxPoint x="440" y="280" as="targetPoint" />
          </mxGeometry>
        </mxCell>
        <mxCell id="sqsLwtyC1Nj7BQoVnkVW-23" value="" style="endArrow=classic;html=1;rounded=0;entryX=1;entryY=0.5;entryDx=0;entryDy=0;exitX=0;exitY=0;exitDx=0;exitDy=0;" edge="1" parent="1" source="sqsLwtyC1Nj7BQoVnkVW-12" target="sqsLwtyC1Nj7BQoVnkVW-4">
          <mxGeometry width="50" height="50" relative="1" as="geometry">
            <mxPoint x="390" y="330" as="sourcePoint" />
            <mxPoint x="440" y="280" as="targetPoint" />
          </mxGeometry>
        </mxCell>
        <mxCell id="sqsLwtyC1Nj7BQoVnkVW-24" value="生" style="text;html=1;align=center;verticalAlign=middle;whiteSpace=wrap;rounded=0;fontStyle=1;fontSize=14;" vertex="1" parent="1">
          <mxGeometry x="390" y="160" width="60" height="30" as="geometry" />
        </mxCell>
        <mxCell id="sqsLwtyC1Nj7BQoVnkVW-25" value="生" style="text;html=1;align=center;verticalAlign=middle;whiteSpace=wrap;rounded=0;fontStyle=1;fontSize=14;" vertex="1" parent="1">
          <mxGeometry x="250" y="250" width="60" height="30" as="geometry" />
        </mxCell>
        <mxCell id="sqsLwtyC1Nj7BQoVnkVW-26" value="生" style="text;html=1;align=center;verticalAlign=middle;whiteSpace=wrap;rounded=0;fontStyle=1;fontSize=14;" vertex="1" parent="1">
          <mxGeometry x="430" y="250" width="60" height="30" as="geometry" />
        </mxCell>
        <mxCell id="sqsLwtyC1Nj7BQoVnkVW-27" value="生" style="text;html=1;align=center;verticalAlign=middle;whiteSpace=wrap;rounded=0;" vertex="1" parent="1">
          <mxGeometry x="420" y="190" width="60" height="30" as="geometry" />
        </mxCell>
        <mxCell id="sqsLwtyC1Nj7BQoVnkVW-28" value="生" style="text;html=1;align=center;verticalAlign=middle;whiteSpace=wrap;rounded=0;fontSize=14;fontStyle=1" vertex="1" parent="1">
          <mxGeometry x="290" y="160" width="60" height="30" as="geometry" />
        </mxCell>
        <mxCell id="sqsLwtyC1Nj7BQoVnkVW-29" value="生" style="text;html=1;align=center;verticalAlign=middle;whiteSpace=wrap;rounded=0;fontStyle=1;fontSize=14;" vertex="1" parent="1">
          <mxGeometry x="340" y="330" width="60" height="30" as="geometry" />
        </mxCell>
      </root>
    </mxGraphModel>
  </diagram>
</mxfile>
